<svg width="680" height="265" viewBox="0 0 680 265" xmlns="http://www.w3.org/2000/svg">
  <defs>
    <linearGradient id="g1" x1="0%" y1="0%" x2="100%" y2="0%">
      <stop offset="0%" stop-color="#B06EF0"/>
      <stop offset="35%" stop-color="#E845B8"/>
      <stop offset="70%" stop-color="#F07880"/>
      <stop offset="100%" stop-color="#38C4F5"/>
    </linearGradient>
    <linearGradient id="g2" x1="0%" y1="0%" x2="100%" y2="0%">
      <stop offset="0%" stop-color="#B06EF0"/>
      <stop offset="50%" stop-color="#E845B8"/>
      <stop offset="100%" stop-color="#F0A878"/>
    </linearGradient>
  </defs>

  <style>
    .name { fill: #69B8FF; opacity: 1; }
    .tagline-word { font-family: 'Helvetica Neue', Helvetica, Arial, sans-serif; font-size: 16px; font-weight: 700; letter-spacing: 4px; }
    .tagline-dot { font-family: 'Helvetica Neue', Helvetica, Arial, sans-serif; font-size: 16px; font-weight: 700; }
  </style>

  <!-- fv script monogram -->
  <path d="M 155 45 C 157 25,175 13,189 17 C 205 21,207 37,199 49 C 191 61,175 63,167 75 C 161 85,159 101,159 117 L 159 172"
        fill="none" stroke="url(#g1)" stroke-width="5.5" stroke-linecap="round" stroke-linejoin="round"/>
  <path d="M 127 103 C 142 97,172 95,199 99"
        fill="none" stroke="url(#g1)" stroke-width="4" stroke-linecap="round"/>
  <path d="M 199 99 C 217 97,229 106,237 128 C 243 144,245 158,247 166 C 251 148,261 124,277 110 C 289 100,309 94,325 90 C 349 84,379 88,401 98"
        fill="none" stroke="url(#g1)" stroke-width="4.5" stroke-linecap="round" stroke-linejoin="round"/>
  <path d="M 401 98 C 421 106,429 116,425 126"
        fill="none" stroke="url(#g1)" stroke-width="3.5" stroke-linecap="round"/>

  <!-- Sparkles -->
  <g transform="translate(437,62)">
    <path d="M0,-15 L2.2,-2.2 L15,0 L2.2,2.2 L0,15 L-2.2,2.2 L-15,0 L-2.2,-2.2 Z" fill="#F5CA42"/>
  </g>
  <g transform="translate(469,84)">
    <path d="M0,-9 L1.3,-1.3 L9,0 L1.3,1.3 L0,9 L-1.3,1.3 L-9,0 L-1.3,-1.3 Z" fill="#38C4F5"/>
  </g>
  <g transform="translate(453,42)">
    <path d="M0,-6 L0.9,-0.9 L6,0 L0.9,0.9 L0,6 L-0.9,0.9 L-6,0 L-0.9,-0.9 Z" fill="#E845B8" opacity="0.8"/>
  </g>
  <g transform="translate(483,60)">
    <path d="M0,-4 L0.6,-0.6 L4,0 L0.6,0.6 L0,4 L-0.6,0.6 L-4,0 L-0.6,-0.6 Z" fill="#B06EF0" opacity="0.65"/>
  </g>

  <!-- Name -->
  <text x="127" y="207"
        font-family="'Helvetica Neue',Helvetica,Arial,sans-serif"
        font-size="38" font-weight="300" letter-spacing="14"
        class="name">faby vanyo</text>

  <!-- Divider lines + dot -->
  <line x1="127" y1="224" x2="268" y2="224" stroke="url(#g2)" stroke-width="0.75"/>
  <circle cx="317" cy="224" r="3.5" fill="#E845B8"/>
  <line x1="366" y1="224" x2="543" y2="224" stroke="url(#g2)" stroke-width="0.75"/>

  <!-- Tagline — larger, bolder, and evenly spaced -->
  <text x="92" y="252" class="tagline-word" fill="#7EA8FF">ENGINEER</text>
  <text x="225" y="252" class="tagline-dot" fill="#B06EF0">•</text>
  <text x="247" y="252" class="tagline-word" fill="#E845B8">FOUNDER</text>
  <text x="374" y="252" class="tagline-dot" fill="#E845B8">•</text>
  <text x="397" y="252" class="tagline-word" fill="#F0A878">AUTHOR</text>
  <text x="509" y="252" class="tagline-dot" fill="#38C4F5">•</text>
  <text x="531" y="252" class="tagline-word" fill="#38C4F5">CREATOR</text>

</svg>
