<svg width="680" height="340" viewBox="0 0 680 340" xmlns="http://www.w3.org/2000/svg">
  <defs>
    <linearGradient id="g1" x1="0%" y1="0%" x2="100%" y2="0%">
      <stop offset="0%" stop-color="#B06EF0"/>
      <stop offset="35%" stop-color="#E845B8"/>
      <stop offset="70%" stop-color="#F07880"/>
      <stop offset="100%" stop-color="#38C4F5"/>
    </linearGradient>
    <linearGradient id="g2" x1="0%" y1="0%" x2="100%" y2="0%">
      <stop offset="0%" stop-color="#B06EF0"/>
      <stop offset="50%" stop-color="#E845B8"/>
      <stop offset="100%" stop-color="#F0A878"/>
    </linearGradient>
    <linearGradient id="g3" x1="0%" y1="0%" x2="100%" y2="0%">
      <stop offset="0%" stop-color="#B06EF0" stop-opacity="0.10"/>
      <stop offset="100%" stop-color="#38C4F5" stop-opacity="0.10"/>
    </linearGradient>
  </defs>

  <style>
    .ghost { fill: currentColor; opacity: 0.06; }
    .url   { fill: currentColor; opacity: 0.22; }
  </style>

  <!-- Soft halo behind monogram -->
  <ellipse cx="300" cy="128" rx="145" ry="82" fill="url(#g3)"/>

  <!-- fv script monogram -->
  <path d="M 198 60 C 200 40,218 28,232 32 C 248 36,250 52,242 64 C 234 76,218 78,210 90 C 204 100,202 116,202 132 L 202 190"
        fill="none" stroke="url(#g1)" stroke-width="5" stroke-linecap="round" stroke-linejoin="round"/>
  <path d="M 172 118 C 185 112,215 110,240 114"
        fill="none" stroke="url(#g1)" stroke-width="4" stroke-linecap="round"/>
  <path d="M 240 114 C 258 112,270 120,278 142 C 284 158,286 172,288 180 C 292 162,302 138,318 124 C 330 114,350 108,366 104 C 390 98,420 102,440 112"
        fill="none" stroke="url(#g1)" stroke-width="4.5" stroke-linecap="round" stroke-linejoin="round"/>
  <path d="M 440 112 C 460 120,468 128,464 138"
        fill="none" stroke="url(#g1)" stroke-width="3.5" stroke-linecap="round"/>

  <!-- Sparkles -->
  <g transform="translate(476,78)"><path d="M0,-14 L2,-2 L14,0 L2,2 L0,14 L-2,2 L-14,0 L-2,-2 Z" fill="#F5CA42"/></g>
  <g transform="translate(506,98)"><path d="M0,-8 L1.2,-1.2 L8,0 L1.2,1.2 L0,8 L-1.2,1.2 L-8,0 L-1.2,-1.2 Z" fill="#38C4F5"/></g>
  <g transform="translate(492,58)"><path d="M0,-5 L0.8,-0.8 L5,0 L0.8,0.8 L0,5 L-0.8,0.8 L-5,0 L-0.8,-0.8 Z" fill="#E845B8" opacity="0.75"/></g>
  <g transform="translate(522,76)"><path d="M0,-4 L0.6,-0.6 L4,0 L0.6,0.6 L0,4 L-0.6,0.6 L-4,0 L-0.6,-0.6 Z" fill="#B06EF0" opacity="0.6"/></g>

  <!-- Ghost wordmark — adapts to bg via currentColor -->
  <text x="340" y="228" text-anchor="middle"
        font-family="'Helvetica Neue',Helvetica,Arial,sans-serif"
        font-size="62" font-weight="200" letter-spacing="18"
        class="ghost">faby vanyo</text>

  <!-- Divider lines + dot -->
  <line x1="148" y1="252" x2="300" y2="252" stroke="url(#g2)" stroke-width="1"/>
  <circle cx="340" cy="252" r="3.5" fill="#E845B8"/>
  <line x1="380" y1="252" x2="532" y2="252" stroke="url(#g2)" stroke-width="1"/>

  <!-- Tagline — all gradient colors, readable on both backgrounds -->
  <text x="145" y="278" font-family="'Helvetica Neue',Helvetica,Arial,sans-serif" font-size="11" font-weight="300" letter-spacing="4" fill="#B06EF0">ENGINEER</text>
  <text x="252" y="278" font-family="'Helvetica Neue',Helvetica,Arial,sans-serif" font-size="9" fill="#C860A8">•</text>
  <text x="268" y="278" font-family="'Helvetica Neue',Helvetica,Arial,sans-serif" font-size="11" font-weight="300" letter-spacing="4" fill="#C860A8">FOUNDER</text>
  <text x="365" y="278" font-family="'Helvetica Neue',Helvetica,Arial,sans-serif" font-size="9" fill="#E87868">•</text>
  <text x="381" y="278" font-family="'Helvetica Neue',Helvetica,Arial,sans-serif" font-size="11" font-weight="300" letter-spacing="4" fill="#E87868">AUTHOR</text>
  <text x="460" y="278" font-family="'Helvetica Neue',Helvetica,Arial,sans-serif" font-size="9" fill="#38C4F5">•</text>
  <text x="476" y="278" font-family="'Helvetica Neue',Helvetica,Arial,sans-serif" font-size="11" font-weight="300" letter-spacing="4" fill="#38C4F5">CREATOR</text>

  <!-- URL — adapts to bg via currentColor -->
  <text x="340" y="318" text-anchor="middle"
        font-family="'Helvetica Neue',Helvetica,Arial,sans-serif"
        font-size="9" font-weight="300" letter-spacing="3"
        class="url">FABYVANYO.COM</text>
</svg>
